<svg height="512" viewBox="0 0 60 58" width="512" xmlns="http://www.w3.org/2000/svg"><g id="Page-1" fill="none" fill-rule="evenodd"><g id="002---IC" fill-rule="nonzero"><rect id="Rectangle-path" fill="#2c3e50" height="58" rx="2" width="38" x="11"/><g fill="#f0c419"><path id="Shape" d="m3 10h-2c-.55228475 0-1-.44771525-1-1s.44771525-1 1-1h2c.55228475 0 1 .44771525 1 1s-.44771525 1-1 1z"/><path id="Shape" d="m3 23h-2c-.55228475 0-1-.4477153-1-1s.44771525-1 1-1h2c.55228475 0 1 .4477153 1 1s-.44771525 1-1 1z"/><path id="Shape" d="m3 37h-2c-.55228475 0-1-.4477153-1-1s.44771525-1 1-1h2c.55228475 0 1 .4477153 1 1s-.44771525 1-1 1z"/><path id="Shape" d="m3 50h-2c-.55228475 0-1-.4477153-1-1s.44771525-1 1-1h2c.55228475 0 1 .4477153 1 1s-.44771525 1-1 1z"/><path id="Shape" d="m59 10h-2c-.5522847 0-1-.44771525-1-1s.4477153-1 1-1h2c.5522847 0 1 .44771525 1 1s-.4477153 1-1 1z"/><path id="Shape" d="m59 23h-2c-.5522847 0-1-.4477153-1-1s.4477153-1 1-1h2c.5522847 0 1 .4477153 1 1s-.4477153 1-1 1z"/><path id="Shape" d="m59 37h-2c-.5522847 0-1-.4477153-1-1s.4477153-1 1-1h2c.5522847 0 1 .4477153 1 1s-.4477153 1-1 1z"/><path id="Shape" d="m59 50h-2c-.5522847 0-1-.4477153-1-1s.4477153-1 1-1h2c.5522847 0 1 .4477153 1 1s-.4477153 1-1 1z"/></g><path id="Rectangle-path" d="m15 0h30v58h-30z" fill="#35495e"/><path id="Shape" d="m35 0c0 2.76142375-2.2385763 5-5 5s-5-2.23857625-5-5z" fill="#f0c419"/><path id="Shape" d="m35 58c0-2.7614237-2.2385763-5-5-5s-5 2.2385763-5 5z" fill="#f0c419"/><path id="Rectangle-path" d="m7 5h4v8h-4z" fill="#3f5c6c"/><path id="Shape" d="m7 5-3.6 2.7c-.25180584.18885438-.4.4852427-.4.8v1c0 .3147573.14819416.6111456.4.8l3.6 2.7z" fill="#35495e"/><path id="Rectangle-path" d="m7 18h4v8h-4z" fill="#3f5c6c"/><path id="Shape" d="m7 18-3.6 2.7c-.25180584.1888544-.4.4852427-.4.8v1c0 .3147573.14819416.6111456.4.8l3.6 2.7z" fill="#35495e"/><path id="Rectangle-path" d="m7 32h4v8h-4z" fill="#3f5c6c"/><path id="Shape" d="m7 32-3.6 2.7c-.25180584.1888544-.4.4852427-.4.8v1c0 .3147573.14819416.6111456.4.8l3.6 2.7z" fill="#35495e"/><path id="Rectangle-path" d="m7 45h4v8h-4z" fill="#3f5c6c"/><path id="Shape" d="m7 45-3.6 2.7c-.25180584.1888544-.4.4852427-.4.8v1c0 .3147573.14819416.6111456.4.8l3.6 2.7z" fill="#35495e"/><path id="Rectangle-path" d="m49 5h4v8h-4z" fill="#3f5c6c" transform="matrix(-1 0 0 -1 102 18)"/><path id="Shape" d="m53 5 3.6 2.7c.2518058.18885438.4.4852427.4.8v1c0 .3147573-.1481942.6111456-.4.8l-3.6 2.7z" fill="#35495e"/><path id="Rectangle-path" d="m49 18h4v8h-4z" fill="#3f5c6c" transform="matrix(-1 0 0 -1 102 44)"/><path id="Shape" d="m53 18 3.6 2.7c.2518058.1888544.4.4852427.4.8v1c0 .3147573-.1481942.6111456-.4.8l-3.6 2.7z" fill="#35495e"/><path id="Rectangle-path" d="m49 32h4v8h-4z" fill="#3f5c6c" transform="matrix(-1 0 0 -1 102 72)"/><path id="Shape" d="m53 32 3.6 2.7c.2518058.1888544.4.4852427.4.8v1c0 .3147573-.1481942.6111456-.4.8l-3.6 2.7z" fill="#35495e"/><path id="Rectangle-path" d="m49 45h4v8h-4z" fill="#3f5c6c" transform="matrix(-1 0 0 -1 102 98)"/><path id="Shape" d="m53 45 3.6 2.7c.2518058.1888544.4.4852427.4.8v1c0 .3147573-.1481942.6111456-.4.8l-3.6 2.7z" fill="#35495e"/></g></g></svg>