<svg height="512" viewBox="0 0 512 512" width="512" xmlns="http://www.w3.org/2000/svg"><g id="flat"><path d="m160 264h-16a8 8 0 0 1 0-16h16a8 8 0 0 1 0 16z" fill="#a8a8a8"/><path d="m144 296a8 8 0 0 1 -8-8v-48a8 8 0 0 0 -16 0v16a8 8 0 0 1 -16 0v-16a24 24 0 0 1 48 0v48a8 8 0 0 1 -8 8z" fill="#cbcbcb"/><path d="m272 248h-24a8 8 0 0 1 0-16h24a8 8 0 0 1 0 16z" fill="#cbcbcb"/><path d="m28 464h328a4 4 0 0 0 4-4v-168a4 4 0 0 0 -4-4h-28v8h-128v-8h-172a4 4 0 0 0 -4 4v168a4 4 0 0 0 4 4z" fill="#683b0d"/><path d="m200 288h128v48h-128z" fill="#cbcbcb"/><rect fill="#6ee7f5" height="240" rx="16" width="128" x="360" y="224"/><g fill="#2cbff4"><path d="m360 304h128v8h-128z"/><path d="m392 280a8 8 0 0 1 -8-8v-16a8 8 0 0 1 16 0v16a8 8 0 0 1 -8 8z"/><path d="m392 360a8 8 0 0 1 -8-8v-16a8 8 0 0 1 16 0v16a8 8 0 0 1 -8 8z"/></g><path d="m200 336h128v96h-128z" fill="#eaeae8" transform="matrix(-1 0 0 -1 528 768)"/><path d="m280 376h-32a8 8 0 0 1 0-16h32a8 8 0 0 1 0 16z" fill="#2cbff4"/><path d="m56 384h112v48h-112z" fill="#533222" transform="matrix(-1 0 0 -1 224 816)"/><path d="m56 320h112v32h-112z" fill="#533222" transform="matrix(-1 0 0 -1 224 672)"/><path d="m280 264h48v24h-48z" fill="#2cbff4"/><path d="m200 264h48v24h-48z" fill="#2cbff4"/><path d="m200 232h48a0 0 0 0 1 0 0v15.984a16.016 16.016 0 0 1 -16.016 16.016h-15.968a16.016 16.016 0 0 1 -16.016-16.016v-15.984a0 0 0 0 1 0 0z" fill="#d32b39"/><path d="m296 48h192v80h-192z" fill="#683b0d"/><path d="m320 104a8 8 0 0 1 -8-8v-16a8 8 0 0 1 16 0v16a8 8 0 0 1 -8 8z" fill="#533222"/><path d="m416 104a8 8 0 0 1 -8-8v-16a8 8 0 0 1 16 0v16a8 8 0 0 1 -8 8z" fill="#533222"/><path d="m296 128h192v24h-192z" fill="#cbcbcb"/><path d="m104 136a8 8 0 0 1 -8-8v-48a8 8 0 0 1 16 0v48a8 8 0 0 1 -8 8z" fill="#6ee7f5"/><path d="m144 176h-80l24-48h32z" fill="#fbb540"/><path d="m224 136a8 8 0 0 1 -8-8v-48a8 8 0 0 1 16 0v48a8 8 0 0 1 -8 8z" fill="#6ee7f5"/><path d="m264 176h-80l24-48h32z" fill="#fbb540"/><path d="m24 48h272v32h-272z" fill="#cbcbcb"/><path d="m48 248a16 16 0 0 1 16 16v24a0 0 0 0 1 0 0h-32a0 0 0 0 1 0 0v-24a16 16 0 0 1 16-16z" fill="#6ee7f5"/><circle cx="232" cy="312" fill="#eaeae8" r="8"/><circle cx="264" cy="312" fill="#eaeae8" r="8"/><circle cx="296" cy="312" fill="#eaeae8" r="8"/><path d="m32 280h32v8h-32z" fill="#2cbff4"/><path d="m280 48h16v32h-16z" fill="#a8a8a8"/><path d="m376 48h16v80h-16z" fill="#533222"/><path d="m200 296h-176v-4a4 4 0 0 1 4-4h172z" fill="#533222"/><path d="m328 288h28a4 4 0 0 1 4 4v4a0 0 0 0 1 0 0h-32a0 0 0 0 1 0 0v-8a0 0 0 0 1 0 0z" fill="#533222"/><path d="m216 80h16v16h-16z" fill="#2cbff4"/><path d="m96 80h16v16h-16z" fill="#2cbff4"/><path d="m200 336h128v8h-128z" fill="#a8a8a8"/></g></svg>